<?xml version="1.0" encoding="utf-8"?>
<!-- Generator: Adobe Illustrator 27.2.0, SVG Export Plug-In . SVG Version: 6.00 Build 0)  -->
<svg version="1.1" id="Layer_1" xmlns="http://www.w3.org/2000/svg" xmlns:xlink="http://www.w3.org/1999/xlink" x="0px" y="0px"
	 viewBox="0 0 768 75" style="enable-background:new 0 0 768 75;" xml:space="preserve">
<style type="text/css">
	.st0{fill:#F4E465;}
	.st1{fill:#86BB75;}
	.st2{fill:#71A7CB;}
	.st3{fill:#FFFFFF;}
</style>
<g>
	<path class="st0" d="M0,0.72h20.48l27.19,38.29h0.59l-0.5-17.47V0.72h16.78v59.77H44.38l-27.1-37.8h-0.76l0.59,16.8v20.99H0V0.72z"
		/>
	<path class="st1" d="M69.13,0.72h18.63l15.44,40.09l2.44,6.64h0.59l2.35-6.48l15.44-40.26h18.63l-25.84,59.77H95L69.13,0.72z"/>
	<path class="st2" d="M156.95,58.77c-4.45-1.69-7.75-4.06-9.9-7.09c-2.16-3.03-3.26-6.49-3.32-10.37h17.62
		c0.11,2.62,1.26,4.73,3.44,6.32c2.18,1.58,5.45,2.38,9.82,2.38c3.75,0,6.57-0.54,8.47-1.64c1.9-1.09,2.86-2.65,2.86-4.67
		c0-1.64-0.43-2.85-1.3-3.64c-0.87-0.79-2.31-1.4-4.33-1.8c-2.02-0.41-4.75-0.8-8.22-1.19c-6.04-0.71-11.05-1.72-15.02-3.03
		s-6.93-3.17-8.89-5.57s-2.94-5.55-2.94-9.43c0-6.07,2.53-10.75,7.59-14.06S164.85,0,173.68,0c8,0,14.44,1.57,19.34,4.71
		c4.89,3.14,7.62,7.63,8.18,13.49h-17.12c-0.28-2.52-1.42-4.32-3.4-5.41c-1.99-1.09-4.55-1.64-7.68-1.64
		c-3.31,0-5.86,0.53-7.68,1.59c-1.82,1.07-2.73,2.51-2.73,4.31c0,1.43,0.39,2.52,1.18,3.28c0.78,0.76,2.2,1.36,4.24,1.76
		c2.04,0.41,4.9,0.83,8.6,1.27c6.21,0.65,11.29,1.62,15.23,2.91c3.95,1.29,6.85,3.19,8.73,5.69c1.88,2.52,2.81,5.98,2.81,10.42
		c0,5.9-2.53,10.54-7.59,13.89c-5.06,3.37-12.35,5.04-21.86,5.04C167.06,61.31,161.39,60.46,156.95,58.77z"/>
	<path class="st0" d="M209.68,0.72h16.95v23.04h29.79V0.72h16.95v59.77h-16.95V36.72h-29.79v23.78h-16.95L209.68,0.72L209.68,0.72z"
		/>
	<path class="st1" d="M292.96,58.77c-4.45-1.69-7.75-4.06-9.9-7.09c-2.16-3.03-3.26-6.49-3.32-10.37h17.62
		c0.11,2.62,1.26,4.73,3.44,6.32c2.18,1.58,5.45,2.38,9.82,2.38c3.75,0,6.57-0.54,8.47-1.64c1.9-1.09,2.86-2.65,2.86-4.67
		c0-1.64-0.43-2.85-1.3-3.64c-0.87-0.79-2.31-1.4-4.33-1.8c-2.02-0.41-4.75-0.8-8.22-1.19c-6.04-0.71-11.05-1.72-15.02-3.03
		c-3.98-1.31-6.93-3.17-8.89-5.57s-2.94-5.55-2.94-9.43c0-6.07,2.53-10.75,7.59-14.06C293.91,1.65,300.86,0,309.69,0
		c8,0,14.44,1.57,19.34,4.71c4.89,3.14,7.62,7.63,8.18,13.49h-17.12c-0.28-2.52-1.42-4.32-3.4-5.41c-1.99-1.09-4.55-1.64-7.68-1.64
		c-3.31,0-5.86,0.53-7.68,1.59c-1.82,1.07-2.73,2.51-2.73,4.31c0,1.43,0.39,2.52,1.18,3.28c0.78,0.76,2.2,1.36,4.24,1.76
		c2.04,0.41,4.9,0.83,8.6,1.27c6.21,0.65,11.29,1.62,15.23,2.91c3.95,1.29,6.85,3.19,8.73,5.69c1.88,2.52,2.81,5.98,2.81,10.42
		c0,5.9-2.53,10.54-7.59,13.89c-5.06,3.37-12.35,5.04-21.86,5.04C303.07,61.31,297.4,60.46,292.96,58.77z"/>
	<path class="st3" d="M343.93,48.27h15.86v12.22h-15.86V48.27z"/>
	<path class="st3" d="M372.92,71.07c-4-2.62-6.22-6.1-6.67-10.42h15.52c0.67,2.62,3.61,3.93,8.81,3.93c3.25,0,5.84-0.57,7.8-1.72
		c1.96-1.15,2.94-3.12,2.94-5.9v-6.4h-0.59c-1.34,2.35-3.43,4.1-6.25,5.25c-2.83,1.15-5.86,1.72-9.1,1.72
		c-4.15,0-7.76-0.86-10.87-2.58c-3.11-1.72-5.51-4.17-7.21-7.34c-1.71-3.17-2.56-6.86-2.56-11.07c0-4.27,0.87-7.98,2.6-11.15
		c1.73-3.17,4.19-5.63,7.34-7.38c3.16-1.75,6.81-2.62,10.95-2.62c3.41,0,6.49,0.6,9.23,1.8s4.72,2.87,5.95,5h0.76l0.67-5.98h15.35
		v38.62c0,6.45-2.24,11.43-6.71,14.92c-4.48,3.5-11.3,5.25-20.48,5.25C382.75,75.01,376.93,73.69,372.92,71.07z M398.64,43.52
		c1.79-1.64,2.69-3.74,2.69-6.32v-1.48c0-2.62-0.9-4.77-2.69-6.44c-1.79-1.66-4.23-2.51-7.3-2.51s-5.55,0.86-7.42,2.58
		c-1.88,1.72-2.81,4.09-2.81,7.09c0,2.95,0.92,5.28,2.77,6.97c1.85,1.69,4.31,2.54,7.38,2.54
		C394.39,45.99,396.86,45.16,398.64,43.52z"/>
	<path class="st3" d="M425.32,0.72h16.36v10.42h-16.36V0.72z M425.32,16.22h16.36v44.27h-16.36V16.22z"/>
	<path class="st3" d="M458.93,57.67c-2.38-1.88-3.57-4.79-3.57-8.73V28.19h-8.14V16.22h8.14V5.48l16.02-2.95v13.69h10.99v11.97
		h-10.99v15.5c0,1.26,0.31,2.12,0.92,2.58c0.62,0.47,1.57,0.69,2.86,0.69h7.21v13.53h-14.01C464.45,60.49,461.31,59.55,458.93,57.67
		z"/>
	<path class="st3" d="M487.92,0.72h16.36v22.63h0.76c1.4-2.41,3.56-4.33,6.46-5.78c2.91-1.45,6.07-2.17,9.48-2.17
		c3.92,0,7.34,0.64,10.28,1.93c2.94,1.29,5.23,3.45,6.88,6.48c1.65,3.03,2.48,7.15,2.48,12.34v24.35h-16.36V39.02
		c0-3.55-0.64-6.37-1.93-8.45s-3.67-3.12-7.13-3.12c-3.42,0-6.08,1.04-8.01,3.12s-2.9,4.7-2.9,7.87v22.05h-16.36L487.92,0.72
		L487.92,0.72z"/>
	<path class="st3" d="M556.64,59.34c-2.97-1.32-5.25-3.49-6.88-6.52c-1.62-3.03-2.44-7.09-2.44-12.18V16.22h16.36v21.57
		c0,3.5,0.64,6.29,1.93,8.37s3.64,3.12,7.05,3.12c3.42,0,6.09-1.03,8.05-3.08s2.94-4.68,2.94-7.91V16.22h16.36v44.27h-15.69
		l-0.67-7.05h-0.67c-1.4,2.35-3.56,4.25-6.46,5.69s-6.09,2.17-9.57,2.17C563.04,61.31,559.61,60.66,556.64,59.34z"/>
	<path class="st3" d="M630.35,59.19c-2.72-1.31-4.74-3.01-6.08-5.08h-0.5l-0.59,6.4h-15.44V0.72h16.36v21.89h0.59
		c1.46-2.3,3.61-4.07,6.46-5.33s5.98-1.88,9.4-1.88c4.48,0,8.36,0.94,11.67,2.83c3.3,1.88,5.87,4.54,7.72,7.95
		c1.85,3.42,2.77,7.45,2.77,12.09s-0.92,8.69-2.77,12.13c-1.85,3.45-4.42,6.1-7.72,7.95c-3.3,1.86-7.19,2.79-11.67,2.79
		C636.46,61.15,633.07,60.49,630.35,59.19z M643.36,46.35c1.99-1.88,2.98-4.57,2.98-8.08c0-3.5-0.98-6.19-2.94-8.08
		c-1.96-1.88-4.59-2.83-7.89-2.83c-3.58,0-6.37,0.97-8.39,2.91c-2.02,1.94-3.02,4.36-3.02,7.26v1.48c0,2.9,1.01,5.32,3.02,7.26
		c2.02,1.94,4.81,2.91,8.39,2.91C638.76,49.17,641.38,48.23,643.36,46.35z"/>
	<path class="st3" d="M667.74,48.27h15.86v12.22h-15.86V48.27z"/>
	<path class="st3" d="M690.3,0.72h16.36v10.42H690.3V0.72z M690.3,16.22h16.36v44.27H690.3V16.22z"/>
	<path class="st3" d="M725.8,58.61c-4.14-1.8-7.35-4.42-9.65-7.83c-2.3-3.42-3.44-7.56-3.44-12.42c0-4.86,1.15-9,3.44-12.42
		c2.3-3.42,5.51-6.03,9.65-7.83c4.14-1.8,8.98-2.7,14.51-2.7c5.59,0,10.46,0.89,14.6,2.66c4.14,1.77,7.35,4.38,9.65,7.79
		c2.3,3.42,3.44,7.59,3.44,12.51c0,4.81-1.13,8.92-3.4,12.34c-2.27,3.42-5.46,6.04-9.61,7.87c-4.14,1.83-9.03,2.74-14.68,2.74
		C734.78,61.31,729.94,60.41,725.8,58.61z M748.79,46.27c1.96-1.94,2.94-4.57,2.94-7.91c0-3.39-0.98-6.05-2.94-7.99
		c-1.96-1.94-4.78-2.91-8.47-2.91c-3.64,0-6.42,0.98-8.35,2.95c-1.93,1.97-2.9,4.62-2.9,7.95c0,3.34,0.97,5.97,2.9,7.91
		c1.93,1.94,4.71,2.91,8.35,2.91C744.01,49.17,746.83,48.21,748.79,46.27z"/>
</g>
</svg>
